<mxfile host="app.diagrams.net" agent="Mozilla/5.0 (Windows NT 10.0; Win64; x64) AppleWebKit/537.36 (KHTML, like Gecko) Chrome/130.0.0.0 Safari/537.36 Edg/130.0.0.0" version="24.8.3">
  <diagram id="Dpt_Ek3JITvLgho4wC-q" name="Page-1">
    <mxGraphModel dx="1666" dy="749" grid="1" gridSize="10" guides="1" tooltips="1" connect="1" arrows="1" fold="1" page="1" pageScale="1" pageWidth="850" pageHeight="1100" math="0" shadow="0">
      <root>
        <mxCell id="0" />
        <mxCell id="1" parent="0" />
        <mxCell id="TAI5K7pfTAFH4h0fYnE8-5" value="output_files.f90" style="rounded=0;whiteSpace=wrap;html=1;fillColor=#F8CECC;" parent="1" vertex="1">
          <mxGeometry x="410" y="10" width="185" height="50" as="geometry" />
        </mxCell>
        <mxCell id="TAI5K7pfTAFH4h0fYnE8-6" value="" style="group" parent="1" vertex="1" connectable="0">
          <mxGeometry x="10" y="10" width="360" height="100" as="geometry" />
        </mxCell>
        <mxCell id="TAI5K7pfTAFH4h0fYnE8-7" value="" style="rounded=0;whiteSpace=wrap;html=1;" parent="TAI5K7pfTAFH4h0fYnE8-6" vertex="1">
          <mxGeometry width="360" height="100" as="geometry" />
        </mxCell>
        <mxCell id="TAI5K7pfTAFH4h0fYnE8-8" value="&lt;font style=&quot;font-size: 9px;&quot;&gt;Dependencies&lt;/font&gt;&lt;div&gt;&lt;div&gt;&lt;font style=&quot;font-size: 9px;&quot;&gt;Driver\MESH_Driver\output_files.f90: output_files_append_field&lt;/font&gt;&lt;/div&gt;&lt;div&gt;&lt;font style=&quot;font-size: 9px;&quot;&gt;Driver\MESH_Driver\output_files.f90: output_files_parse_indices&lt;/font&gt;&lt;/div&gt;&lt;div&gt;&lt;font style=&quot;font-size: 9px;&quot;&gt;Modules\permafrost_outputs\permafrost_outputs_module.f90: permafrost_outputs_init&lt;/font&gt;&lt;/div&gt;&lt;/div&gt;&lt;div&gt;&lt;font style=&quot;&quot;&gt;&lt;font size=&quot;1&quot;&gt;Modules\permafrost_outputs\permafrost_outputs_module.f90: permafrost_outputs_update&lt;/font&gt;&lt;/font&gt;&lt;/div&gt;" style="text;html=1;align=left;verticalAlign=middle;whiteSpace=wrap;rounded=0;" parent="TAI5K7pfTAFH4h0fYnE8-6" vertex="1">
          <mxGeometry x="8.307000000000002" width="342.693" height="97.2972972972973" as="geometry" />
        </mxCell>
        <mxCell id="TAI5K7pfTAFH4h0fYnE8-9" value="" style="edgeStyle=orthogonalEdgeStyle;rounded=0;orthogonalLoop=1;jettySize=auto;html=1;" parent="1" source="TAI5K7pfTAFH4h0fYnE8-10" target="TAI5K7pfTAFH4h0fYnE8-12" edge="1">
          <mxGeometry relative="1" as="geometry" />
        </mxCell>
        <mxCell id="TAI5K7pfTAFH4h0fYnE8-10" value="&lt;b&gt;output_files_init(fls,shd)&lt;/b&gt;" style="rounded=1;whiteSpace=wrap;html=1;" parent="1" vertex="1">
          <mxGeometry x="120" y="160" width="160" height="50" as="geometry" />
        </mxCell>
        <mxCell id="TAI5K7pfTAFH4h0fYnE8-19" style="edgeStyle=orthogonalEdgeStyle;rounded=0;orthogonalLoop=1;jettySize=auto;html=1;" parent="1" source="TAI5K7pfTAFH4h0fYnE8-12" target="TAI5K7pfTAFH4h0fYnE8-18" edge="1">
          <mxGeometry relative="1" as="geometry" />
        </mxCell>
        <mxCell id="TAI5K7pfTAFH4h0fYnE8-12" value="&lt;div&gt;Initialize variables&lt;/div&gt;" style="whiteSpace=wrap;html=1;rounded=1;" parent="1" vertex="1">
          <mxGeometry x="136.25" y="230" width="127.5" height="30" as="geometry" />
        </mxCell>
        <mxCell id="TAI5K7pfTAFH4h0fYnE8-17" value="end subroutine" style="whiteSpace=wrap;html=1;rounded=1;" parent="1" vertex="1">
          <mxGeometry x="142.5" y="980" width="140" height="40" as="geometry" />
        </mxCell>
        <mxCell id="TAI5K7pfTAFH4h0fYnE8-21" style="edgeStyle=orthogonalEdgeStyle;rounded=0;orthogonalLoop=1;jettySize=auto;html=1;entryX=0.5;entryY=0;entryDx=0;entryDy=0;" parent="1" source="TAI5K7pfTAFH4h0fYnE8-18" target="TAI5K7pfTAFH4h0fYnE8-20" edge="1">
          <mxGeometry relative="1" as="geometry" />
        </mxCell>
        <mxCell id="TAI5K7pfTAFH4h0fYnE8-18" value="&lt;div&gt;fls_out%PROCESS_ACTIVE == True&lt;/div&gt;" style="rhombus;whiteSpace=wrap;html=1;rounded=1;fillColor=#F19C99;" parent="1" vertex="1">
          <mxGeometry x="75" y="290" width="250" height="50" as="geometry" />
        </mxCell>
        <mxCell id="TAI5K7pfTAFH4h0fYnE8-23" value="" style="edgeStyle=orthogonalEdgeStyle;rounded=0;orthogonalLoop=1;jettySize=auto;html=1;" parent="1" source="TAI5K7pfTAFH4h0fYnE8-20" target="TAI5K7pfTAFH4h0fYnE8-22" edge="1">
          <mxGeometry relative="1" as="geometry" />
        </mxCell>
        <mxCell id="TAI5K7pfTAFH4h0fYnE8-20" value="&lt;div&gt;call GET_DATES(ts)&lt;/div&gt;" style="whiteSpace=wrap;html=1;rounded=1;" parent="1" vertex="1">
          <mxGeometry x="136.88" y="370" width="126.87" height="40" as="geometry" />
        </mxCell>
        <mxCell id="TAI5K7pfTAFH4h0fYnE8-25" value="" style="edgeStyle=orthogonalEdgeStyle;rounded=0;orthogonalLoop=1;jettySize=auto;html=1;" parent="1" source="TAI5K7pfTAFH4h0fYnE8-22" target="TAI5K7pfTAFH4h0fYnE8-24" edge="1">
          <mxGeometry relative="1" as="geometry" />
        </mxCell>
        <mxCell id="TAI5K7pfTAFH4h0fYnE8-22" value="Allocate output variable for time-stamps" style="whiteSpace=wrap;html=1;rounded=1;" parent="1" vertex="1">
          <mxGeometry x="125.08" y="440" width="149.84" height="50" as="geometry" />
        </mxCell>
        <mxCell id="TAI5K7pfTAFH4h0fYnE8-24" value="Open input file and reads file:&amp;nbsp;outputs_balance.txt" style="whiteSpace=wrap;html=1;rounded=1;fillColor=#C3ABD0;" parent="1" vertex="1">
          <mxGeometry x="116.36999999999999" y="520" width="167.26" height="50" as="geometry" />
        </mxCell>
        <mxCell id="TAI5K7pfTAFH4h0fYnE8-33" style="edgeStyle=orthogonalEdgeStyle;rounded=0;orthogonalLoop=1;jettySize=auto;html=1;entryX=0.5;entryY=0;entryDx=0;entryDy=0;" parent="1" source="TAI5K7pfTAFH4h0fYnE8-27" target="TAI5K7pfTAFH4h0fYnE8-32" edge="1">
          <mxGeometry relative="1" as="geometry" />
        </mxCell>
        <mxCell id="TAI5K7pfTAFH4h0fYnE8-27" value="" style="rounded=0;whiteSpace=wrap;html=1;" parent="1" vertex="1">
          <mxGeometry x="75" y="600" width="275" height="270" as="geometry" />
        </mxCell>
        <mxCell id="TAI5K7pfTAFH4h0fYnE8-26" value="Parse each line and get arguments from file" style="whiteSpace=wrap;html=1;rounded=1;" parent="1" vertex="1">
          <mxGeometry x="131.17" y="670" width="164.92" height="40" as="geometry" />
        </mxCell>
        <mxCell id="TAI5K7pfTAFH4h0fYnE8-28" value="Compare arguments with Model variables and call with appropriate arguments:&lt;br&gt;call &lt;b&gt;output_files_append_field&lt;/b&gt;&lt;div&gt;&lt;b&gt;&lt;br&gt;&lt;/b&gt;&lt;/div&gt;&lt;div&gt;&amp;nbsp;If&amp;nbsp;&lt;span style=&quot;background-color: initial;&quot;&gt;case (PMFRSTVN_DZAA):&lt;/span&gt;&lt;/div&gt;&lt;div&gt;&lt;span style=&quot;background-color: initial;&quot;&gt;call &lt;b&gt;output_files_parse_indices&lt;/b&gt;&lt;br&gt;&lt;/span&gt;&lt;/div&gt;&lt;div&gt;&lt;span style=&quot;background-color: initial;&quot;&gt;call &lt;b&gt;permafrost_outputs_init&lt;/b&gt;&lt;br&gt;&lt;/span&gt;&lt;/div&gt;" style="whiteSpace=wrap;html=1;rounded=1;fillColor=#CCFFCC;" parent="1" vertex="1">
          <mxGeometry x="106.16999999999999" y="720" width="218.83" height="140" as="geometry" />
        </mxCell>
        <mxCell id="TAI5K7pfTAFH4h0fYnE8-29" style="edgeStyle=orthogonalEdgeStyle;rounded=0;orthogonalLoop=1;jettySize=auto;html=1;entryX=0.473;entryY=0.004;entryDx=0;entryDy=0;entryPerimeter=0;" parent="1" source="TAI5K7pfTAFH4h0fYnE8-24" target="TAI5K7pfTAFH4h0fYnE8-27" edge="1">
          <mxGeometry relative="1" as="geometry" />
        </mxCell>
        <mxCell id="TAI5K7pfTAFH4h0fYnE8-30" value="do while (ios == 0)" style="text;html=1;align=center;verticalAlign=middle;whiteSpace=wrap;rounded=0;" parent="1" vertex="1">
          <mxGeometry x="70" y="607" width="130" height="20" as="geometry" />
        </mxCell>
        <mxCell id="TAI5K7pfTAFH4h0fYnE8-31" value="i = i + read_txt_line(iun, line, ios)" style="whiteSpace=wrap;html=1;rounded=1;" parent="1" vertex="1">
          <mxGeometry x="133.11999999999998" y="627" width="164.92" height="40" as="geometry" />
        </mxCell>
        <mxCell id="TAI5K7pfTAFH4h0fYnE8-34" style="edgeStyle=orthogonalEdgeStyle;rounded=0;orthogonalLoop=1;jettySize=auto;html=1;entryX=0.5;entryY=0;entryDx=0;entryDy=0;" parent="1" source="TAI5K7pfTAFH4h0fYnE8-32" target="TAI5K7pfTAFH4h0fYnE8-17" edge="1">
          <mxGeometry relative="1" as="geometry" />
        </mxCell>
        <mxCell id="TAI5K7pfTAFH4h0fYnE8-32" value="Print the number of active fields (Output variables)" style="whiteSpace=wrap;html=1;rounded=1;" parent="1" vertex="1">
          <mxGeometry x="135.3" y="900" width="154.41" height="50" as="geometry" />
        </mxCell>
        <mxCell id="1GwxMVajnrsE9ooIjJzL-2" style="edgeStyle=orthogonalEdgeStyle;rounded=0;orthogonalLoop=1;jettySize=auto;html=1;" parent="1" source="N9IAl-Eg-rfFphE0jmZH-1" target="1GwxMVajnrsE9ooIjJzL-1" edge="1">
          <mxGeometry relative="1" as="geometry" />
        </mxCell>
        <mxCell id="N9IAl-Eg-rfFphE0jmZH-1" value="&lt;b&gt;output_files_finalize(fls,shd)&lt;/b&gt;" style="rounded=1;whiteSpace=wrap;html=1;" parent="1" vertex="1">
          <mxGeometry x="511.25" y="750" width="170" height="50" as="geometry" />
        </mxCell>
        <mxCell id="1GwxMVajnrsE9ooIjJzL-4" value="" style="edgeStyle=orthogonalEdgeStyle;rounded=0;orthogonalLoop=1;jettySize=auto;html=1;" parent="1" source="1GwxMVajnrsE9ooIjJzL-1" target="1GwxMVajnrsE9ooIjJzL-3" edge="1">
          <mxGeometry relative="1" as="geometry" />
        </mxCell>
        <mxCell id="1GwxMVajnrsE9ooIjJzL-1" value="&lt;div&gt;fls_out%PROCESS_ACTIVE == True&lt;/div&gt;" style="rhombus;whiteSpace=wrap;html=1;rounded=1;fillColor=#F19C99;" parent="1" vertex="1">
          <mxGeometry x="471.25" y="830" width="250" height="50" as="geometry" />
        </mxCell>
        <mxCell id="1GwxMVajnrsE9ooIjJzL-6" style="edgeStyle=orthogonalEdgeStyle;rounded=0;orthogonalLoop=1;jettySize=auto;html=1;" parent="1" source="1GwxMVajnrsE9ooIjJzL-3" target="1GwxMVajnrsE9ooIjJzL-5" edge="1">
          <mxGeometry relative="1" as="geometry" />
        </mxCell>
        <mxCell id="1GwxMVajnrsE9ooIjJzL-3" value="call output_files_update(fls, shd)" style="whiteSpace=wrap;html=1;fillColor=#FFFFFF;rounded=1;" parent="1" vertex="1">
          <mxGeometry x="498.75" y="910" width="195" height="40" as="geometry" />
        </mxCell>
        <mxCell id="1GwxMVajnrsE9ooIjJzL-5" value="end subroutine" style="whiteSpace=wrap;html=1;rounded=1;" parent="1" vertex="1">
          <mxGeometry x="526.25" y="980" width="140" height="40" as="geometry" />
        </mxCell>
        <mxCell id="K6mqDtR1VJM8_i01Ech8-1" style="edgeStyle=orthogonalEdgeStyle;rounded=0;orthogonalLoop=1;jettySize=auto;html=1;" parent="1" source="K6mqDtR1VJM8_i01Ech8-2" target="K6mqDtR1VJM8_i01Ech8-4" edge="1">
          <mxGeometry relative="1" as="geometry" />
        </mxCell>
        <mxCell id="K6mqDtR1VJM8_i01Ech8-2" value="&lt;b&gt;output_files_update(fls,shd)&lt;/b&gt;" style="rounded=1;whiteSpace=wrap;html=1;" parent="1" vertex="1">
          <mxGeometry x="502.5" y="170" width="170" height="50" as="geometry" />
        </mxCell>
        <mxCell id="K6mqDtR1VJM8_i01Ech8-3" value="" style="edgeStyle=orthogonalEdgeStyle;rounded=0;orthogonalLoop=1;jettySize=auto;html=1;" parent="1" source="K6mqDtR1VJM8_i01Ech8-4" target="K6mqDtR1VJM8_i01Ech8-6" edge="1">
          <mxGeometry relative="1" as="geometry" />
        </mxCell>
        <mxCell id="K6mqDtR1VJM8_i01Ech8-4" value="&lt;div&gt;fls_out%PROCESS_ACTIVE == True&lt;/div&gt;" style="rhombus;whiteSpace=wrap;html=1;rounded=1;fillColor=#F19C99;" parent="1" vertex="1">
          <mxGeometry x="462.5" y="250" width="250" height="50" as="geometry" />
        </mxCell>
        <mxCell id="K6mqDtR1VJM8_i01Ech8-10" value="" style="edgeStyle=orthogonalEdgeStyle;rounded=0;orthogonalLoop=1;jettySize=auto;html=1;" parent="1" source="K6mqDtR1VJM8_i01Ech8-6" target="K6mqDtR1VJM8_i01Ech8-9" edge="1">
          <mxGeometry relative="1" as="geometry" />
        </mxCell>
        <mxCell id="K6mqDtR1VJM8_i01Ech8-6" value="Increments the counter for seasonal outputs if the current month has changed" style="whiteSpace=wrap;html=1;fillColor=#FFFFFF;rounded=1;" parent="1" vertex="1">
          <mxGeometry x="487.5" y="320" width="200" height="60" as="geometry" />
        </mxCell>
        <mxCell id="K6mqDtR1VJM8_i01Ech8-7" value="end subroutine" style="whiteSpace=wrap;html=1;rounded=1;" parent="1" vertex="1">
          <mxGeometry x="544.06" y="667" width="110.62" height="30" as="geometry" />
        </mxCell>
        <mxCell id="K6mqDtR1VJM8_i01Ech8-9" value="&lt;div&gt;!&amp;gt; Update external outputs.&lt;/div&gt;&lt;div&gt;&amp;nbsp; &amp;nbsp; &amp;nbsp; &amp;nbsp; call permafrost_outputs_update(fls, shd)&lt;/div&gt;" style="whiteSpace=wrap;html=1;fillColor=#FFE599;rounded=1;" parent="1" vertex="1">
          <mxGeometry x="471.25" y="410" width="232.5" height="50" as="geometry" />
        </mxCell>
        <mxCell id="K6mqDtR1VJM8_i01Ech8-18" value="" style="group" parent="1" vertex="1" connectable="0">
          <mxGeometry x="460" y="490" width="278.75" height="153" as="geometry" />
        </mxCell>
        <mxCell id="K6mqDtR1VJM8_i01Ech8-13" value="" style="rounded=0;whiteSpace=wrap;html=1;" parent="K6mqDtR1VJM8_i01Ech8-18" vertex="1">
          <mxGeometry width="278.75" height="153" as="geometry" />
        </mxCell>
        <mxCell id="K6mqDtR1VJM8_i01Ech8-14" value="do i = 1, size(fls_out%fls) &quot;output files&quot;:" style="text;html=1;align=center;verticalAlign=middle;whiteSpace=wrap;rounded=0;" parent="K6mqDtR1VJM8_i01Ech8-18" vertex="1">
          <mxGeometry width="218.75" height="20" as="geometry" />
        </mxCell>
        <mxCell id="K6mqDtR1VJM8_i01Ech8-17" value="" style="edgeStyle=orthogonalEdgeStyle;rounded=0;orthogonalLoop=1;jettySize=auto;html=1;" parent="K6mqDtR1VJM8_i01Ech8-18" source="K6mqDtR1VJM8_i01Ech8-15" target="K6mqDtR1VJM8_i01Ech8-16" edge="1">
          <mxGeometry relative="1" as="geometry" />
        </mxCell>
        <mxCell id="K6mqDtR1VJM8_i01Ech8-15" value="&lt;div&gt;If the frequency is not IO_FREQ_STA&lt;/div&gt;" style="rhombus;whiteSpace=wrap;html=1;rounded=1;fillColor=#F19C99;" parent="K6mqDtR1VJM8_i01Ech8-18" vertex="1">
          <mxGeometry x="14.379999999999995" y="33" width="250" height="50" as="geometry" />
        </mxCell>
        <mxCell id="K6mqDtR1VJM8_i01Ech8-16" value="call output_files_update_field&lt;div&gt;(fls, shd, fls_out%fls(i))&lt;/div&gt;" style="whiteSpace=wrap;html=1;fillColor=#FFFFFF;rounded=1;" parent="K6mqDtR1VJM8_i01Ech8-18" vertex="1">
          <mxGeometry x="59.690000000000055" y="103" width="159.06" height="43" as="geometry" />
        </mxCell>
        <mxCell id="K6mqDtR1VJM8_i01Ech8-19" style="edgeStyle=orthogonalEdgeStyle;rounded=0;orthogonalLoop=1;jettySize=auto;html=1;entryX=0.585;entryY=0.15;entryDx=0;entryDy=0;entryPerimeter=0;" parent="1" source="K6mqDtR1VJM8_i01Ech8-9" target="K6mqDtR1VJM8_i01Ech8-14" edge="1">
          <mxGeometry relative="1" as="geometry" />
        </mxCell>
        <mxCell id="K6mqDtR1VJM8_i01Ech8-21" style="edgeStyle=orthogonalEdgeStyle;rounded=0;orthogonalLoop=1;jettySize=auto;html=1;entryX=0.5;entryY=0;entryDx=0;entryDy=0;" parent="1" source="K6mqDtR1VJM8_i01Ech8-13" target="K6mqDtR1VJM8_i01Ech8-7" edge="1">
          <mxGeometry relative="1" as="geometry" />
        </mxCell>
      </root>
    </mxGraphModel>
  </diagram>
</mxfile>
